<svg width="65" height="65" viewBox="0 0 65 65" fill="none" xmlns="http://www.w3.org/2000/svg">
<path d="M27.3001 21.3877C30.2169 16.1579 31.674 13.5417 33.8542 13.5417C36.0344 13.5417 37.4915 16.1579 40.4084 21.3877L41.1613 22.7419C41.9901 24.2288 42.4071 24.9708 43.0517 25.461C43.6963 25.9513 44.5007 26.1327 46.1121 26.4983L47.5746 26.8288C53.2378 28.1098 56.0707 28.7517 56.7424 30.9183C57.4167 33.085 55.4857 35.341 51.6236 39.8558L50.6269 41.0204C49.5301 42.3042 48.983 42.946 48.7338 43.7396C48.4901 44.5331 48.5713 45.389 48.7365 47.0979L48.8882 48.6579C49.4732 54.6813 49.763 57.6929 47.9999 59.0308C46.2367 60.3715 43.5853 59.15 38.2851 56.7098L36.9119 56.076C35.4061 55.3827 34.6532 55.036 33.8542 55.036C33.0553 55.036 32.3024 55.3827 30.7938 56.076L29.4234 56.7098C24.1232 59.1473 21.4717 60.3715 19.7086 59.0308C17.9455 57.6929 18.238 54.6813 18.8203 48.6579L18.9719 47.1006C19.1371 45.389 19.2211 44.5331 18.9719 43.7423C18.7282 42.946 18.1784 42.3069 17.0815 41.0231L16.0821 39.8531C12.2228 35.341 10.2917 33.0823 10.9634 30.9156C11.6405 28.749 14.4707 28.1098 20.1338 26.8288L21.5963 26.4983C23.2078 26.1327 24.0121 25.9513 24.6567 25.461C25.304 24.9735 25.7184 24.2288 26.5471 22.7419L27.3001 21.3877Z" fill="#85B6FF"/>
<path opacity="0.5" d="M13.1842 6.77083C13.2654 6.48646 13.7719 6.48375 13.8558 6.77083C14.235 8.07625 14.9392 10.0046 16.0036 11.0635C17.0679 12.1198 19.0044 12.8131 20.3098 13.1842C20.5996 13.2654 20.5996 13.7719 20.3152 13.8558C19.0098 14.235 17.0788 14.9392 16.0198 16.0035C14.9636 17.0679 14.2729 19.0044 13.9019 20.3098C13.8206 20.5996 13.3115 20.5996 13.2275 20.3152C12.8483 19.0098 12.1442 17.0787 11.0798 16.0198C10.0154 14.9635 8.08168 14.2729 6.77356 13.9019C6.48647 13.8206 6.48376 13.3115 6.77085 13.2275C8.07626 12.8483 10.0046 12.1442 11.0636 11.0798C12.1198 10.0154 12.8131 8.07896 13.1842 6.77083Z" fill="#85B6FF"/>
<path opacity="0.5" fill-rule="evenodd" clip-rule="evenodd" d="M51.4583 8.80208C51.9971 8.80208 52.5137 9.01608 52.8946 9.39702C53.2756 9.77795 53.4896 10.2946 53.4896 10.8333V11.5104H54.1667C54.7054 11.5104 55.222 11.7244 55.603 12.1054C55.9839 12.4863 56.1979 13.0029 56.1979 13.5417C56.1979 14.0804 55.9839 14.597 55.603 14.978C55.222 15.3589 54.7054 15.5729 54.1667 15.5729H53.4896V16.25C53.4896 16.7887 53.2756 17.3054 52.8946 17.6863C52.5137 18.0672 51.9971 18.2812 51.4583 18.2812C50.9196 18.2812 50.403 18.0672 50.022 17.6863C49.6411 17.3054 49.4271 16.7887 49.4271 16.25V15.5729H48.75C48.2113 15.5729 47.6946 15.3589 47.3137 14.978C46.9328 14.597 46.7188 14.0804 46.7188 13.5417C46.7188 13.0029 46.9328 12.4863 47.3137 12.1054C47.6946 11.7244 48.2113 11.5104 48.75 11.5104H49.4271V10.8333C49.4271 10.2946 49.6411 9.77795 50.022 9.39702C50.403 9.01608 50.9196 8.80208 51.4583 8.80208Z" fill="#85B6FF"/>
</svg>
